<svg width="17" height="8" viewBox="0 0 17 8" fill="none" xmlns="http://www.w3.org/2000/svg">
<g clip-path="url(#clip0_14_14)">
<path d="M15.3998 4.56843C15.3643 4.60889 15.3257 4.64304 15.2852 4.67274L12.5722 7.77313C12.3075 8.07547 11.8781 8.07561 11.6134 7.77299C11.3486 7.47051 11.3486 6.97992 11.6134 6.67716L13.9498 4.00695L11.6013 1.32283C11.3365 1.02035 11.3365 0.529901 11.6013 0.226993C11.7338 0.0754676 11.9074 -8.10623e-06 12.0807 -8.10623e-06C12.2539 -8.10623e-06 12.4277 0.0754676 12.56 0.226993L15.2852 3.34173C15.3257 3.37143 15.3645 3.40558 15.3998 3.44605C15.5351 3.60073 15.6004 3.80449 15.5972 4.00724C15.6004 4.20999 15.5351 4.4136 15.3998 4.56843Z" fill="black"/>
</g>
<rect y="3" width="10" height="2" rx="1" fill="black"/>
<defs>
<clipPath id="clip0_14_14">
<rect width="7" height="8" fill="white" transform="translate(17 8) rotate(-180)"/>
</clipPath>
</defs>
</svg>
